<svg version="1.2" xmlns="http://www.w3.org/2000/svg" viewBox="0 0 124 76" width="64" height="39"><style>.a{opacity:1;fill:#020202}.b{opacity:1;fill:#f6f7f7}.c{opacity:.9;fill:#030303}.d{opacity:1;fill:#1f1f1f}.e{opacity:1;fill:#c90101}.f{opacity:.7;fill:#020202}.g{opacity:1;fill:#6a0404}.h{opacity:1;fill:#f1f1f1}</style><path class="a" d="m113.3 2.7c0.4 0.5 1 0.5 1.4 0 0.3-0.4 0-0.7-0.8-0.7-0.8 0-1.1 0.3-0.6 0.7zm-5.9 2.5c-1.6 1.3-3 2.6-3.1 3-0.2 0.5-0.7 0.8-1.2 0.8-0.5 0-3 1.7-5.4 3.8-2.5 2-6.1 4.7-8.1 6-2 1.2-4.4 2.2-5.3 2.2-1 0-5 1.1-8.8 2.6-5.7 2.1-8.2 2.5-13.5 2.2-3.6-0.3-8.1-1.3-10-2.3-2.4-1.2-4.6-1.6-7.2-1.1-2.3 0.4-3.8 0.2-3.8-0.4 0-0.6-2.1 1.4-4.7 4.2-2.5 2.9-5.1 5.6-5.7 6-0.8 0.5-0.7 1.3 0.2 2.8 0.6 1.1 1.2 2.9 1.2 4 0 1.9-0.2 1.9-4.7 0.6-2.7-0.8-6.6-1.6-8.7-1.8-3.7-0.3-4.3 0-8.3 4.9-2.7 3.4-4.2 6.1-4 7.5 0.1 1.4 1 2.4 2.2 2.6 1.3 0.2 2.8-0.8 4.3-2.8 1.7-2.3 1.9-3 0.7-3-0.8 0-1.5 0.6-1.5 1.2 0 0.7-0.9 1.9-2 2.5-1.7 1.1-2.1 1-2.5-0.2-0.3-0.8 0.5-2.8 1.8-4.5 2-2.7 2.4-2.9 4.2-1.6 1.5 1 2.4 1 3.7 0.2 1.3-0.9 3.1-0.5 8 1.5 4 1.7 6.5 3.4 6.7 4.5 0.2 1.1 0 1.6-0.5 1.2-0.5-0.4-2.9 3-5.2 7.5-3 5.6-4.2 8.9-3.8 10.4 0.4 1.6 1.3 2.3 3.1 2.3 1.8 0 3.3-1.1 5.3-4.3 1.6-2.3 4.4-7 6.3-10.4 3-5.5 3.8-6.2 7.2-6.7 2-0.3 4.3-0.3 5 0 0.6 0.3 3.5-0.4 6.2-1.5 2.8-1.2 6.1-2.1 7.5-2.1 1.4 0 3.3 0.5 4.3 1.2 1.7 1.2 1.6 1.6-1.2 6.8-1.7 3-3.1 5.8-3.1 6.3 0 0.4 2-0.5 4.5-2.1q4.4-2.7 4.8-5.2c0.4-2.2 0.4-2.2 0.6 0.5 0.1 1.8-0.9 4.4-2.4 6.5-1.4 1.9-2.5 3.7-2.6 4 0 0.3 1.5-0.7 3.3-2.1 2.5-2 3.4-3.5 3.6-6.3 0.1-2.1 0.7-3.6 1.5-3.6 0.6 0 2 1.7 3 3.7 1.8 3.8 1.8 3.8-0.7 6.3-1.4 1.4-3 4.1-3.7 6-0.6 1.9-0.7 3.8-0.3 4.2 0.5 0.4 1.6 0.3 2.4-0.2q1.5-1 0.3-1c-0.7 0-1.3-1.1-1.3-2.5 0-1.6 1.1-3.3 3.3-5 1.7-1.3 4-2.5 5-2.5 0.9 0 1.7 0.6 1.7 1.2 0 0.7-1.6 2.8-3.5 4.5-1.9 1.8-3.5 3.5-3.5 3.8 0 0.3 1.9-1 4.3-2.9 2.3-1.8 5-4.9 5.9-6.7 1.5-3.1 1.5-3.8 0.1-7.4-1.3-3.4-1.3-4.5-0.2-7 0.7-1.6 2.1-4.1 3.1-5.5 1-1.4 1.8-3.6 1.8-5 0-1.4-1.2-4.3-2.5-6.5-1.4-2.2-2.5-4.3-2.5-4.7 0-0.5 2.3-2 5-3.5 2.8-1.6 5-3.2 5-3.8-0.1-0.6 1.7-2.2 4-3.7 2.2-1.6 4-3.2 4-3.8 0-0.6 0.5-0.8 1-0.5 0.6 0.3 1.2-0.2 1.5-1 0.3-0.8 0.1-1.3-0.5-1-0.5 0.3-1.2-0.2-1.5-1-0.3-0.9 0.6-2.1 2.3-3 1.5-0.8 2.2-1.4 1.6-1.5-0.6 0-2.4 1-4 2.2zm9.6-1.2c0 0.6 0.7 0.8 1.5 0.5 0.8-0.3 1.5-0.7 1.5-1 0-0.3-0.7-0.5-1.5-0.5-0.8 0-1.5 0.5-1.5 1zm-5.1 2.8c-1.3 1.6-1.3 1.6 0.4 0.2 1-0.8 1.8-1.6 1.7-1.7 0-0.2-0.2-0.3-0.4-0.3-0.2 0-1 0.8-1.7 1.8zm-86.4 0.7c-1.1 0.8-3.7 1.7-5.7 1.9-2.1 0.3-4.5 1.5-5.5 2.6-1 1.1-2.9 2.1-4.3 2-1.5 0-3.2 0.5-3.8 1.1-0.8 0.6-1 1.8-0.5 3 0.5 1.1 2.2 2.4 3.8 3 1.7 0.6 4.8 1.8 7 2.7 2.2 1 4.3 1.6 4.7 1.5 0.5-0.2 0.8 0.3 0.8 1 0 0.6 1.4 2 3 3l3 1.7c3.8-5.8 6-8.6 7.4-10l2.6-2.5c-6.8-3.8-8-5.2-8-6.8 0-1.7 0.5-2.1 2.5-1.9 1.4 0.1 2.5-0.1 2.5-0.6 0-0.4-1.2-1.3-2.8-2-1.5-0.7-3.1-1.2-3.7-1.2-0.5 0-1.9 0.7-3 1.5z"/><path class="b" d="m8.6 47.6c-0.5 0.4-0.9 1.4-0.8 2.3 0.1 1.1 0.5 1.3 1.3 0.6 0.6-0.5 0.9-1.6 0.7-2.3-0.2-0.7-0.8-1-1.2-0.6zm54.7 15.9c-1 2-1.4 3.9-1 4.3 0.5 0.4 2.2-0.9 3.8-2.8 1.6-1.9 2.9-3.8 2.9-4.3 0-0.4-0.9-0.7-2-0.7-1.2 0-2.6 1.3-3.7 3.5zm16.2 1.9c-2.8 2.4-3.7 3.8-3 4.5 0.7 0.8 2.3 0.1 5.3-2.4 2.3-1.9 4-4 3.7-4.5-0.3-0.5-0.8-1-1.2-1-0.5 0-2.6 1.6-4.8 3.4z"/><path class="c" d="m109.3 9.2q-0.8 1.3 0.5 0.5c0.6-0.4 1.2-0.9 1.2-1.2 0-0.3-0.2-0.5-0.5-0.5-0.2 0-0.8 0.6-1.2 1.2zm-2.4 1.8c0 0.8 0.4 1.2 0.8 0.8 0.5-0.5 0.5-1.1 0-1.5-0.4-0.5-0.8-0.1-0.8 0.7z"/><path class="d" d="m40.9 22c0 0.8 0.4 1.2 0.8 0.8 0.4-0.5 0.4-1.1 0-1.6-0.4-0.4-0.8 0-0.8 0.8zm-9.6 9.2q-0.8 1.3 0.5 0.5c0.6-0.4 1.2-0.9 1.2-1.2 0-0.3-0.2-0.5-0.5-0.5-0.2 0-0.8 0.6-1.2 1.2zm40.8 25.3c0 1.1 0.2 1.4 0.3 0.7 0.1-0.7 0.1-1.6-0.1-2-0.2-0.4-0.3 0.2-0.2 1.3zm7.8 3.5c0 0.8 0.4 1.2 0.8 0.8 0.5-0.5 0.5-1.1 0-1.6-0.4-0.4-0.8 0-0.8 0.8zm-19.4 5c-0.8 1.7-1.3 3.7-1 4.5 0.3 0.8 1.1 1.5 1.8 1.5 0.6 0 1.9-0.6 2.8-1.3 0.8-0.7 2.4-2.5 3.3-4.2l1.8-3c-4 4.3-5.6 5.5-6.2 5.5-0.5 0-1.2-0.5-1.5-1-0.3-0.5-0.1-1.9 0.4-3 0.5-1.1 0.8-2 0.6-2-0.3 0-1.1 1.4-2 3z"/><path class="e" d="m35 22.2c-1.7 1.8-4 4.5-5.1 6.1-1.4 2-1.6 2.9-0.7 3.4 0.8 0.3 2.8-1.2 5.1-3.8 2-2.4 4.2-5.2 4.7-6.1 0.6-1.1 0.6-2 0.1-2.4-0.6-0.3-2.4 1-4.1 2.8z"/><path class="f" d="m13.3 38.2q-0.8 1.3 0.4 0.5c0.7-0.4 1.3-0.9 1.3-1.2 0-0.3-0.2-0.5-0.5-0.5-0.2 0-0.8 0.6-1.2 1.2zm5.9-0.5c0.5 0.4 1.1 0.5 1.5 0 0.3-0.4 0-0.7-0.8-0.7-0.8 0-1.1 0.3-0.7 0.7zm9 2c0.5 0.4 1.1 0.5 1.5 0 0.3-0.4 0-0.7-0.8-0.7-0.8 0-1.1 0.3-0.7 0.7zm-12.3 6c-1.3 1.7-1.3 1.7 0.4 0.3 1-0.8 1.8-1.6 1.7-1.8 0-0.1-0.2-0.2-0.4-0.2-0.2 0-1 0.8-1.7 1.7zm30.3 5c0.5 0.4 1.1 0.5 1.5 0 0.3-0.4 0-0.7-0.8-0.7-0.8 0-1.1 0.3-0.7 0.7z"/><path class="g" d="m32.9 23.8c-1.3 1.6-1.3 1.6 0.4 0.2 1-0.8 1.8-1.6 1.7-1.8 0-0.1-0.2-0.2-0.4-0.2-0.2 0-1 0.8-1.7 1.7zm3 2l-2.4 2.8c4.3-3.9 5.5-5.1 5.5-5.3 0-0.1-0.1-0.2-0.3-0.2-0.2 0-1.5 1.2-2.8 2.7z"/><path class="h" d="m111.3 4.7c0.4 0.5 1 0.5 1.4 0 0.3-0.4 0-0.7-0.8-0.7-0.8 0-1.1 0.3-0.6 0.7zm-80.4 35.3c0 0.8 0.4 1.2 0.8 0.8 0.5-0.5 0.5-1.1 0-1.5-0.4-0.5-0.8-0.1-0.8 0.7zm-20.4 5.3c-0.2 0.6-0.6 2.3-0.9 3.7-0.6 2.2-0.5 2.3 0.9 1 0.9-0.8 1.6-2.1 1.5-2.7 0-0.7 0.6-1.4 1.3-1.6 0.7-0.2 0.5-0.6-0.6-1-1.1-0.4-2-0.2-2.2 0.6z"/><path class="b" d="m26.9 65c-1.6 1.7-2.7 3.5-2.4 4 0.3 0.5 1.2 1 2 1 0.8 0 1.8-1.1 2.3-2.5 0.4-1.4 1.3-2.8 2-3 0.6-0.3 1.2-1 1.2-1.5 0-0.5-0.5-1-1.1-1-0.6 0-2.4 1.4-4 3z"/></svg>